<?xml version="1.0" standalone="no"?>
<!DOCTYPE svg PUBLIC "-//W3C//DTD SVG 20010904//EN"
 "http://www.w3.org/TR/2001/REC-SVG-20010904/DTD/svg10.dtd">
<svg version="1.0" xmlns="http://www.w3.org/2000/svg"
 width="600.000000pt" height="200.000000pt" viewBox="0 0 600.000000 200.000000"
 preserveAspectRatio="xMidYMid meet">
<metadata>
Created by potrace 1.16, written by Peter Selinger 2001-2019
</metadata>
<g transform="translate(0.000000,200.000000) scale(0.100000,-0.100000)"
fill="#000000" stroke="none">
<path d="M495 1981 c-196 -57 -341 -178 -427 -356 -67 -141 -68 -145 -68 -856
l0 -636 23 -43 c16 -30 37 -51 67 -67 l44 -23 2660 2 2661 3 70 23 c111 37
193 88 276 171 83 83 134 166 171 276 l23 70 3 660 3 660 -24 45 c-16 30 -37
51 -67 67 l-43 23 -2656 -1 c-2495 0 -2660 -1 -2716 -18z m823 -404 c401 -141
563 -610 332 -959 -26 -40 -67 -92 -91 -115 -85 -80 -225 -155 -263 -140 -13
5 -16 26 -16 125 0 98 -3 124 -20 157 -25 48 -25 45 3 45 83 0 189 66 228 142
47 92 45 229 -3 308 -17 28 -20 49 -19 102 3 87 -9 112 -52 103 -18 -4 -56
-20 -85 -36 -49 -26 -58 -27 -104 -19 -28 6 -77 10 -108 10 -31 0 -80 -4 -108
-10 -46 -8 -55 -7 -104 19 -29 16 -68 32 -85 36 -30 6 -34 4 -44 -22 -6 -15
-9 -55 -7 -88 2 -48 -2 -67 -19 -95 -65 -106 -46 -278 40 -368 41 -43 76 -61
147 -75 l57 -12 -21 -45 c-17 -37 -28 -47 -58 -54 -50 -13 -89 6 -138 64 -42
50 -89 77 -117 66 -14 -6 -10 -13 24 -49 23 -23 51 -62 63 -85 28 -57 89 -87
162 -80 l49 5 -3 -71 c-3 -65 -5 -71 -26 -74 -12 -2 -57 14 -100 34 -112 56
-225 170 -280 285 -53 110 -77 226 -68 332 23 277 212 506 478 577 104 29 255
23 356 -13z m3947 -1100 l-63 -172 -1133 -3 c-623 -1 -1136 1 -1140 5 -4 5 21
83 54 176 l61 167 1142 0 1141 0 -62 -173z"/>
<path d="M3014 480 c-28 -77 -49 -142 -46 -145 3 -3 501 -5 1108 -5 1040 0
1102 1 1109 18 20 51 95 260 95 266 0 3 -498 6 -1107 6 l-1108 0 -51 -140z"/>
</g>
</svg>
